<svg width="847" height="581" viewBox="0 0 847 581" fill="none" xmlns="http://www.w3.org/2000/svg">
<path d="M82.3376 410.548C49.5393 334.424 60.4003 262.047 71.5488 235.374L124.414 251.594C90.753 406.438 199.577 486.241 258.197 506.786C291.518 518.464 372.127 548.741 473.975 495.973C575.822 443.204 603.66 327.437 601.392 272.257C620.812 266.85 633.65 265.651 659.543 259.163C668.174 331.828 629.335 411.99 608.836 442.988C577.548 498.135 491.237 569.503 389.821 580.316C296.605 585.506 242.932 559.819 218.278 548.957C185.551 534.54 115.136 486.673 82.3376 410.548Z" fill="#39AEC6"/>
<path d="M661.967 263.78C651.12 266.457 642.591 268.201 634.825 269.765C628.789 271.063 622.672 272.357 616.489 273.644C522.197 293.271 412.675 311.227 343.344 315.272L265.606 335.786L188.947 359.539L219.179 287.2L171.672 269.924L169.798 269.305L128.733 255.74C109.467 250.333 91.1259 244.927 75.8677 239.52L53.985 231.055L28.0723 218.099L193.266 258.048L345.503 304.475L675.891 245.091C698.565 241.852 744.992 233.215 791.419 226.737C773.15 236.074 723.591 249.837 661.967 263.78Z" fill="#156175"/>
<path d="M417.842 6.02962C443.755 11.0451 521.493 34.1019 567.921 81.6085C593.833 107.881 647.17 173.167 653.217 224.129C636.301 225.208 601.391 229.959 592.754 227.368C592.754 215.491 574.398 185.26 553.884 156.108C522.074 110.902 489.103 94.5648 466.429 81.6085C449.659 72.0259 413.524 53.7182 349.822 61.0942C247.25 72.9709 208.382 120.478 196.505 129.115C175.991 113.999 164.113 110.76 146.839 102.123C166.273 74.0505 226.736 28.7032 275.322 15.7468C322.396 3.194 350.901 -6.92711 417.842 6.02962Z" fill="#39AEC6"/>
<path d="M452.393 370.336L358.46 314.192L456.712 302.315L452.393 370.336Z" fill="#118FA5"/>
<path d="M221.338 319.591L227.816 296.917C245.955 299.508 277.123 313.112 290.439 319.591H221.338Z" fill="#D9D9D9"/>
<path d="M28.0722 218.099L4.31885 181.389C57.8719 181.389 261.287 235.374 356.3 262.367L688.847 229.976C707.562 227.096 753.629 217.667 775.223 215.94C796.817 214.212 830.648 205.502 846.483 199.744L791.419 226.737L345.503 304.475L28.0722 218.099Z" fill="#EEEEEE"/>
<path d="M239.987 221.581L116.607 103.651C127.241 110.024 231.93 170.082 239.987 174.911C261.254 187.656 363.253 236.682 394.09 250.49C371.76 255.8 365.461 268.313 310.168 240.699C274.014 224.767 272.951 227.953 239.987 221.581Z" fill="#EEEEEE"/>
<path d="M131.723 86.3759C121.358 86.3759 114.448 97.1728 115.528 102.571C153.533 136.258 315.992 215.58 391.931 250.49L400.568 249.41L409.206 247.251L424.322 242.932L416.5 239.5C326.525 188.754 134.963 87.4556 131.723 86.3759Z" fill="#3194AB"/>
<path d="M771.984 209.091C784.94 206.931 827.049 202.613 846.483 200.453L827.049 209.091L694.246 229.605L356.3 263.076L265.606 238.243L168.433 213.41L71.2601 198.294L4.31879 182.098L0 176.7L136.042 198.294C125.245 176.34 102.787 127.898 95.0134 114.077C85.2961 101.121 71.2601 95.7226 64.7819 90.3241C74.4992 86.0053 122.006 83.1367 131.723 86.3758C125.245 90.6946 116.607 90.3241 115.528 102.201C134.962 121.635 205.143 181.019 234.294 215.569C280.721 215.569 343.344 249.04 348.742 253.358C366.018 255.518 400.909 251.175 428.64 240.402C456.371 229.629 563.602 223.127 659.695 220.968C716.919 217.728 757.948 211.43 771.984 209.091Z" fill="#06697E"/>
</svg>
